<svg width="24" height="24" viewBox="0 0 24 24" fill="none" xmlns="http://www.w3.org/2000/svg">
<g clip-path="url(#clip0_0_111)">
<mask id="mask0_0_111" style="mask-type:luminance" maskUnits="userSpaceOnUse" x="0" y="0" width="24" height="24">
<path d="M0 0H24V24H0V0Z" fill="white"/>
</mask>
<g mask="url(#mask0_0_111)">
<mask id="mask1_0_111" style="mask-type:luminance" maskUnits="userSpaceOnUse" x="0" y="0" width="24" height="24">
<path d="M0 0H24V24H0V0Z" fill="white"/>
</mask>
<g mask="url(#mask1_0_111)">
<path d="M3.5 12C3.5 7.3056 7.3056 3.5 12 3.5C16.6944 3.5 20.5 7.3056 20.5 12C20.5 14.1137 19.726 16.0451 18.4492 17.5322C17.6526 16.0268 16.0723 15.0002 14.25 15H9.75C7.9276 15.0002 6.3464 16.0266 5.5498 17.5322C4.2732 16.0452 3.5 14.1135 3.5 12ZM6.6973 18.6406C7.1509 17.3925 8.3459 16.5002 9.75 16.5H14.25C15.6538 16.5002 16.8489 17.3919 17.3027 18.6396C16.4706 19.3058 15.5206 19.8095 14.5023 20.1245C13.6917 20.3743 12.8482 20.5008 12 20.5C11.1373 20.5008 10.2795 20.3699 9.4563 20.1119C8.45348 19.7965 7.51795 19.2976 6.6973 18.6406ZM22 12C22 6.4772 17.5228 2 12 2C6.4772 2 2 6.4772 2 12C2 17.5228 6.4772 22 12 22C14.5644 22 16.9019 21.0333 18.6719 19.4463C18.6756 19.4428 18.68 19.4401 18.6836 19.4365C20.719 17.606 22 14.953 22 12Z" fill="#9DA3AD"/>
<path d="M9.5 9.5C9.5 8.1193 10.6193 7 12 7C13.3807 7 14.5 8.1193 14.5 9.5C14.5 10.8807 13.3807 12 12 12C10.6193 12 9.5 10.8807 9.5 9.5ZM16 9.5C16 7.2909 14.2091 5.5 12 5.5C9.7909 5.5 8 7.2909 8 9.5C8 11.7091 9.7909 13.5 12 13.5C14.2091 13.5 16 11.7091 16 9.5Z" fill="#9DA3AD"/>
</g>
</g>
</g>
<defs>
<clipPath id="clip0_0_111">
<rect width="24" height="24" fill="white"/>
</clipPath>
</defs>
</svg>
