<svg width="24" height="24" viewBox="0 0 24 24" fill="none" xmlns="http://www.w3.org/2000/svg">
<g clip-path="url(#clip0_0_78)">
<mask id="mask0_0_78" style="mask-type:luminance" maskUnits="userSpaceOnUse" x="0" y="0" width="24" height="24">
<path d="M0 0H24V24H0V0Z" fill="white"/>
</mask>
<g mask="url(#mask0_0_78)">
<mask id="mask1_0_78" style="mask-type:luminance" maskUnits="userSpaceOnUse" x="0" y="0" width="24" height="24">
<path d="M0 0H24V24H0V0Z" fill="white"/>
</mask>
<g mask="url(#mask1_0_78)">
<path d="M19.25 21.0004C20.2165 21.0004 21 20.2169 21 19.2504V8.32856C21 8.021 20.9189 7.71888 20.765 7.45263C20.611 7.18638 20.3896 6.9654 20.1231 6.81196L12.8731 2.63766C12.6075 2.48477 12.3064 2.4043 12 2.4043C11.6936 2.4043 11.3925 2.48477 11.1269 2.63766L3.8769 6.81196C3.61036 6.9654 3.38896 7.18638 3.23501 7.45263C3.08107 7.71888 3.00001 8.021 3 8.32856V19.2504C3 20.2169 3.7835 21.0004 4.75 21.0004H8.75C9.7165 21.0004 10.5 20.2169 10.5 19.2504V14.5004H13.5V19.2504C13.5 20.2169 14.2835 21.0004 15.25 21.0004H19.25ZM19.3747 8.11196C19.4128 8.13387 19.4444 8.16543 19.4664 8.20345C19.4884 8.24148 19.5 8.28463 19.5 8.32856V19.2504C19.5 19.3167 19.4737 19.3802 19.4268 19.4271C19.3799 19.474 19.3163 19.5004 19.25 19.5004H15.25C15.1837 19.5004 15.1201 19.474 15.0732 19.4271C15.0263 19.3802 15 19.3167 15 19.2504V13.7504C15 13.5514 14.921 13.3607 14.7803 13.22C14.6397 13.0794 14.4489 13.0004 14.25 13.0004H9.75C9.55109 13.0004 9.36032 13.0794 9.21967 13.22C9.07902 13.3607 9 13.5514 9 13.7504V19.2504C9 19.3167 8.97366 19.3802 8.92678 19.4271C8.87989 19.474 8.8163 19.5004 8.75 19.5004H4.75C4.6837 19.5004 4.62011 19.474 4.57322 19.4271C4.52634 19.3802 4.5 19.3167 4.5 19.2504V8.32856C4.50001 8.28463 4.5116 8.24148 4.5336 8.20345C4.5556 8.16543 4.58723 8.13387 4.6253 8.11196L11.8753 3.93756C11.9132 3.91573 11.9562 3.90424 12 3.90424C12.0438 3.90424 12.0868 3.91573 12.1247 3.93756L19.3747 8.11196Z" fill="#FFD66B"/>
</g>
</g>
</g>
<defs>
<clipPath id="clip0_0_78">
<rect width="24" height="24" fill="white"/>
</clipPath>
</defs>
</svg>
